<svg xmlns="http://www.w3.org/2000/svg" xmlns:xlink="http://www.w3.org/1999/xlink" width="200" height="160" viewBox="0 0 200 160">
  <defs>
    <linearGradient id="logo-dark-b" x1="50.438%" x2="50%" y1="50%" y2="50%">
      <stop offset="0%" stop-opacity="0"/>
      <stop offset="100%"/>
    </linearGradient>
    <rect id="logo-dark-a" width="159" height="34" x=".5" y="0"/>
    <linearGradient id="logo-dark-e" x1="50.811%" x2="50.811%" y1="50%" y2="50%">
      <stop offset="0%" stop-opacity="0"/>
      <stop offset="100%"/>
    </linearGradient>
    <rect id="logo-dark-d" width="159" height="34" x=".5" y="0"/>
  </defs>
  <g fill="none" fill-rule="evenodd">
    <text fill="#EDF2F7" font-family="Inter-Medium, Inter" font-size="38" font-weight="400">
      <tspan x="23.717" y="59">Tailwind</tspan>
    </text>
    <g transform="translate(22 102)">
      <mask id="logo-dark-c" fill="#fff">
        <use xlink:href="#logo-dark-a"/>
      </mask>
      <use fill="url(#logo-dark-b)" xlink:href="#logo-dark-a"/>
      <path fill="#1A202C" fill-rule="nonzero" stroke="#CBD5E0" stroke-dasharray="7 3" stroke-linecap="square" d="M12.0158992,28 C18.9295287,28 23.1175927,23.7232997 23.1175927,16.6323976 C23.1175927,9.56365462 18.9295287,5.30911338 12.0823764,5.30911338 L3.97215714,5.30911338 L3.97215714,28 L12.0158992,28 Z M11.8164676,23.8894927 L8.76959557,23.8894927 L8.76959557,9.41962067 L11.8275471,9.41962067 C16.0820883,9.41962067 18.3312338,11.5912094 18.3312338,16.6323976 C18.3312338,21.6957449 16.0820883,23.8894927 11.8164676,23.8894927 Z M43.4605038,28 L43.4605038,19.956258 L46.9616367,19.956258 L51.2604961,28 L56.5565136,28 L51.7369161,19.1806906 C54.3184476,18.0727371 55.7477076,15.8235916 55.7477076,12.7213219 C55.7477076,8.21195142 52.7673128,5.30911338 47.6153293,5.30911338 L38.6630654,5.30911338 L38.6630654,28 L43.4605038,28 Z M46.717887,16.10058 L43.4605038,16.10058 L43.4605038,9.23126859 L46.6957279,9.23126859 C49.4656115,9.23126859 50.8062352,10.4610969 50.8062352,12.7213219 C50.8062352,14.9704674 49.4656115,16.10058 46.717887,16.10058 Z M75.0491403,28 L76.7332296,22.8258574 L84.9210055,22.8258574 L86.6050948,28 L91.7459988,28 L83.9238474,5.30911338 L77.7414672,5.30911338 L69.9082363,28 L75.0491403,28 Z M83.7133363,19.0809747 L77.9519784,19.0809747 L80.744021,10.4943355 L80.9212936,10.4943355 L83.7133363,19.0809747 Z M111.269025,28 L111.269025,18.6267138 L120.498277,18.6267138 L120.498277,14.67132 L111.269025,14.67132 L111.269025,9.26450719 L121.495435,9.26450719 L121.495435,5.30911338 L106.471587,5.30911338 L106.471587,28 L111.269025,28 Z M147.544302,28 L147.544302,9.26450719 L154.491171,9.26450719 L154.491171,5.30911338 L135.855394,5.30911338 L135.855394,9.26450719 L142.802262,9.26450719 L142.802262,28 L147.544302,28 Z" mask="url(#logo-dark-c)"/>
      <g transform="translate(0 1)">
        <mask id="logo-dark-f" fill="#fff">
          <use xlink:href="#logo-dark-d"/>
        </mask>
        <use fill="url(#logo-dark-e)" xlink:href="#logo-dark-d"/>
        <path fill="#1A202C" fill-rule="nonzero" stroke="#CBD5E0" stroke-linecap="round" stroke-linejoin="round" d="M12.0158992,27 C18.9295287,27 23.1175927,22.7232997 23.1175927,15.6323976 C23.1175927,8.56365462 18.9295287,4.30911338 12.0823764,4.30911338 L3.97215714,4.30911338 L3.97215714,27 L12.0158992,27 Z M11.8164676,22.8894927 L8.76959557,22.8894927 L8.76959557,8.41962067 L11.8275471,8.41962067 C16.0820883,8.41962067 18.3312338,10.5912094 18.3312338,15.6323976 C18.3312338,20.6957449 16.0820883,22.8894927 11.8164676,22.8894927 Z M43.4605038,27 L43.4605038,18.956258 L46.9616367,18.956258 L51.2604961,27 L56.5565136,27 L51.7369161,18.1806906 C54.3184476,17.0727371 55.7477076,14.8235916 55.7477076,11.7213219 C55.7477076,7.21195142 52.7673128,4.30911338 47.6153293,4.30911338 L38.6630654,4.30911338 L38.6630654,27 L43.4605038,27 Z M46.717887,15.10058 L43.4605038,15.10058 L43.4605038,8.23126859 L46.6957279,8.23126859 C49.4656115,8.23126859 50.8062352,9.46109692 50.8062352,11.7213219 C50.8062352,13.9704674 49.4656115,15.10058 46.717887,15.10058 Z M75.0491403,27 L76.7332296,21.8258574 L84.9210055,21.8258574 L86.6050948,27 L91.7459988,27 L83.9238474,4.30911338 L77.7414672,4.30911338 L69.9082363,27 L75.0491403,27 Z M83.7133363,18.0809747 L77.9519784,18.0809747 L80.744021,9.49433552 L80.9212936,9.49433552 L83.7133363,18.0809747 Z M111.269025,27 L111.269025,17.6267138 L120.498277,17.6267138 L120.498277,13.67132 L111.269025,13.67132 L111.269025,8.26450719 L121.495435,8.26450719 L121.495435,4.30911338 L106.471587,4.30911338 L106.471587,27 L111.269025,27 Z M147.544302,27 L147.544302,8.26450719 L154.491171,8.26450719 L154.491171,4.30911338 L135.855394,4.30911338 L135.855394,8.26450719 L142.802262,8.26450719 L142.802262,27 L147.544302,27 Z" mask="url(#logo-dark-f)"/>
      </g>
      <text fill="#ECC94B" fill-rule="nonzero" font-family="Inter-Bold, Inter" font-size="31.2" font-weight="bold" letter-spacing="12" opacity=".2" style="mix-blend-mode:hard-light">
        <tspan x="4.6" y="30.6">DRAFT</tspan>
      </text>
    </g>
    <line x1="8.911" x2="191.089" y1="81" y2="81" stroke="#F6E05E" stroke-linecap="round" stroke-linejoin="round" stroke-width="2"/>
  </g>
</svg>
